<svg width="1024" height="1024" viewBox="0 0 1024 1024" fill="none" xmlns="http://www.w3.org/2000/svg">
<g clip-path="url(#clip0_15_2)">
<path d="M0 0C337.92 0 675.84 0 1024 0C1024 337.92 1024 675.84 1024 1024C686.08 1024 348.16 1024 0 1024C0 686.08 0 348.16 0 0Z" fill="#8A13EF"/>
<path d="M302.218 178.871C303.208 178.869 303.208 178.869 304.219 178.866C306.459 178.861 308.699 178.864 310.939 178.866C312.55 178.864 314.162 178.862 315.773 178.859C320.224 178.853 324.675 178.853 329.126 178.854C333.919 178.855 338.713 178.849 343.506 178.844C352.914 178.836 362.322 178.833 371.73 178.833C379.391 178.832 387.052 178.83 394.713 178.827C416.459 178.818 438.204 178.814 459.95 178.814C461.124 178.814 462.298 178.814 463.507 178.815C464.682 178.815 465.858 178.815 467.069 178.815C486.039 178.815 505.01 178.806 523.98 178.791C543.484 178.777 562.989 178.77 582.493 178.771C593.432 178.771 604.371 178.769 615.31 178.758C624.643 178.749 633.977 178.747 643.311 178.753C648.06 178.757 652.809 178.757 657.558 178.748C714.546 178.649 714.546 178.649 742.5 183.687C743.24 183.815 743.979 183.944 744.742 184.076C782.272 190.597 818.36 204.409 847 230C847.833 230.7 848.665 231.4 849.523 232.121C855.126 236.873 859.621 242.113 864 248C864.574 248.758 865.147 249.516 865.738 250.297C879.352 268.949 887.139 289.329 891 312C891.177 312.999 891.353 313.999 891.535 315.029C892.783 322.494 893.387 329.746 893.375 337.312C893.373 339.02 893.373 339.02 893.37 340.763C893.11 359.655 891.117 379.725 885.642 397.844C884.835 400.552 884.086 403.276 883.332 406C882.723 408.167 882.112 410.334 881.5 412.5C881.215 413.516 880.931 414.533 880.637 415.58C879.139 420.745 877.478 425.524 874.923 430.263C873.926 432.138 873.083 434.047 872.25 436C863.139 456.632 851.588 475.084 837.582 492.722C835.111 495.841 832.731 499.018 830.414 502.254C828.445 504.685 826.231 506.805 824 509C822.763 510.246 821.527 511.493 820.293 512.742C818.925 514.12 817.556 515.497 816.188 516.875C815.514 517.557 814.84 518.239 814.146 518.941C797.516 535.651 778.071 548.791 758 561C756.916 561.668 755.832 562.335 754.715 563.023C731.624 576.771 705.771 586.58 680 594C678.816 594.349 678.816 594.349 677.607 594.705C662.574 599.117 647.412 602.229 632 605C631.31 605.145 630.62 605.289 629.908 605.439C620.983 607.227 611.984 607.93 602.922 608.607C602.054 608.672 601.186 608.738 600.292 608.805C580.859 610.239 561.487 610.397 542.01 610.304C537.269 610.285 532.527 610.283 527.785 610.28C518.88 610.271 509.974 610.246 501.068 610.216C490.898 610.182 480.728 610.166 470.558 610.151C449.705 610.12 428.853 610.067 408 610C404.969 603.938 408.772 594.438 410.625 588.312C410.889 587.412 411.154 586.511 411.426 585.583C413.657 578.02 415.995 570.49 418.318 562.956C420.924 554.426 423.229 545.825 425.515 537.205C427.401 530.126 429.453 523.144 431.688 516.168C433.375 510.866 434.938 505.527 436.5 500.187C436.799 499.165 437.099 498.143 437.407 497.089C439.51 489.846 441.477 482.576 443.227 475.239C444.487 470.188 446.182 465.413 449 461C451.569 459.716 453.403 459.866 456.28 459.855C457.401 459.848 458.522 459.841 459.676 459.834C460.913 459.832 462.149 459.829 463.422 459.826C465.415 459.816 467.408 459.806 469.401 459.795C471.551 459.785 473.7 459.777 475.85 459.77C480.351 459.755 484.853 459.731 489.354 459.705C502.158 459.634 514.962 459.575 527.767 459.523C534.833 459.494 541.899 459.459 548.966 459.416C552.694 459.394 556.423 459.376 560.152 459.366C592.931 459.279 592.931 459.279 625.312 454.625C626.304 454.429 627.296 454.233 628.318 454.031C648.026 449.953 669.754 440.416 684 426C685.15 424.898 685.15 424.898 686.324 423.773C701.337 408.537 708.219 389.177 708.438 368.062C708.448 367.103 708.458 366.144 708.469 365.155C708.341 355.057 705.359 344.557 698.25 337.125C697.507 336.424 696.765 335.722 696 335C696 334.34 696 333.68 696 333C695.474 332.739 694.948 332.479 694.406 332.211C692.586 331.295 690.775 330.359 688.969 329.414C675.657 322.548 662.8 319.032 648 317C646.815 316.831 645.631 316.663 644.41 316.489C639.952 315.937 635.554 315.847 631.066 315.842C630.201 315.837 629.337 315.832 628.446 315.827C625.569 315.811 622.692 315.803 619.814 315.794C617.744 315.785 615.674 315.775 613.604 315.764C607.997 315.738 602.391 315.716 596.784 315.697C590.919 315.675 585.055 315.647 579.191 315.62C568.092 315.571 556.993 315.526 545.893 315.482C533.255 315.433 520.617 315.378 507.978 315.323C481.986 315.209 455.993 315.102 430 315C429.865 315.684 429.729 316.369 429.59 317.074C429.411 317.973 429.232 318.872 429.048 319.798C428.872 320.688 428.695 321.579 428.513 322.497C427.924 325.37 427.233 328.203 426.484 331.039C426.206 332.103 425.927 333.167 425.639 334.263C425.346 335.372 425.052 336.482 424.75 337.625C422.063 347.861 419.45 358.112 416.954 368.397C416.726 369.325 416.497 370.254 416.262 371.211C416.065 372.018 415.869 372.826 415.667 373.658C415 376 415 376 414.035 378.354C412.781 381.561 411.991 384.771 411.18 388.117C410.828 389.552 410.476 390.986 410.124 392.421C409.941 393.17 409.758 393.919 409.569 394.692C408.612 398.573 407.623 402.447 406.633 406.32C406.43 407.113 406.228 407.905 406.02 408.722C401.295 427.211 396.495 445.669 391.293 464.031C388.062 475.454 384.95 486.887 382.129 498.419C378.998 511.21 375.489 523.894 371.939 536.573C365.274 560.398 358.792 584.28 352.938 608.319C351.698 613.378 350.308 618.357 348.786 623.338C347.262 628.501 345.96 633.723 344.625 638.937C344.005 641.341 343.386 643.745 342.766 646.148C342.465 647.317 342.164 648.486 341.854 649.69C338.945 660.966 335.958 672.215 332.809 683.426C331.411 688.431 330.116 693.454 328.875 698.5C328.252 701 327.626 703.5 327 706C326.652 707.436 326.652 707.436 326.297 708.902C322.511 723.188 312.619 729.306 301 737.187C299.325 738.328 297.651 739.468 295.977 740.609C294.728 741.459 294.728 741.459 293.454 742.326C289.752 744.851 286.064 747.394 282.375 749.937C276.948 753.673 271.495 757.364 266 761C263.687 762.541 261.375 764.083 259.062 765.625C257.766 766.489 256.469 767.354 255.172 768.219C254.497 768.668 253.822 769.118 253.127 769.582C175.566 821.289 175.566 821.289 173.831 822.446C172.643 823.238 171.456 824.029 170.269 824.821C166.205 827.532 162.138 830.238 158.07 832.941C155.943 834.357 153.815 835.772 151.688 837.187C150.685 837.853 149.683 838.518 148.651 839.203C143.073 842.916 137.544 846.685 132.07 850.548C127.131 854.013 127.131 854.013 124.437 853.75C122 853 122 853 120 851C119.854 845.366 121.448 839.785 123.062 834.437C125.511 825.965 127.688 817.433 129.812 808.875C130.154 807.502 130.496 806.129 130.837 804.756C131.894 800.504 132.947 796.252 134 792C135.244 786.975 136.49 781.95 137.74 776.927C138.232 774.946 138.721 772.965 139.21 770.984C140.703 764.98 142.261 759.012 143.984 753.07C145.969 746.211 147.716 739.303 149.417 732.369C151.312 724.666 153.237 716.971 155.154 709.274C155.675 707.178 156.196 705.083 156.716 702.987C159.429 692.046 162.193 681.133 165.252 670.283C167.113 663.661 168.792 656.998 170.43 650.318C172.338 642.559 174.278 634.807 176.209 627.054C176.737 624.931 177.265 622.808 177.791 620.685C182.756 600.667 182.756 600.667 184.934 593.273C188.368 581.541 191.128 569.615 194.062 557.75C195.301 552.744 196.542 547.739 197.785 542.734C198.063 541.605 198.342 540.475 198.628 539.312C200.066 533.524 201.602 527.793 203.363 522.094C204.29 519.047 205.055 515.968 205.812 512.875C206.154 511.495 206.495 510.114 206.836 508.734C207.224 507.156 207.612 505.578 208 504C213.657 481.033 213.657 481.033 216.625 470.562C218.176 465.088 219.605 459.609 220.875 454.062C222.46 447.153 224.202 440.294 226 433.437C228.373 424.378 230.683 415.306 232.945 406.219C233.206 405.173 233.466 404.127 233.735 403.05C235.043 397.795 236.348 392.538 237.648 387.281C240.077 377.495 242.576 367.742 245.31 358.036C246.962 352.175 248.486 346.289 249.938 340.375C250.31 338.875 250.31 338.875 250.689 337.344C251.715 333.211 252.735 329.076 253.754 324.941C256.57 313.54 259.469 302.176 262.607 290.86C264.899 282.524 266.985 274.14 269.062 265.75C271.307 256.688 273.584 247.647 276.137 238.666C278.021 232.011 279.764 225.32 281.5 218.625C281.8 217.474 282.101 216.323 282.41 215.137C283.802 209.772 285.155 204.405 286.383 199C286.595 198.086 286.807 197.173 287.025 196.232C287.412 194.551 287.784 192.866 288.139 191.178C289.316 186.105 290.884 183.45 295 180C296.833 178.167 299.76 178.873 302.218 178.871Z" fill="#FDFCFD"/>
<path d="M430 315C457.104 314.953 484.209 314.918 511.313 314.896C523.899 314.886 536.485 314.872 549.071 314.849C560.047 314.829 571.022 314.816 581.998 314.812C587.804 314.809 593.611 314.803 599.417 314.788C604.893 314.775 610.37 314.771 615.846 314.774C617.845 314.773 619.845 314.769 621.844 314.761C633.408 314.719 644.559 315.218 656 317C653.082 318.945 651.375 319.453 648 320C648 319.34 648 318.68 648 318C646.907 318.165 645.814 318.33 644.688 318.5C641 319 641 319 638 319C636.436 319.151 634.873 319.319 633.312 319.5C632.504 319.593 631.696 319.686 630.863 319.781C630.248 319.853 629.634 319.926 629 320C629 319.34 629 318.68 629 318C625.354 317.159 622 316.882 618.262 316.902C616.662 316.907 616.662 316.907 615.029 316.912C613.927 316.92 612.824 316.929 611.688 316.937C610.004 316.944 610.004 316.944 608.287 316.951C605.525 316.963 602.762 316.979 600 317C600 317.66 600 318.32 600 319C597.36 319 594.72 319 592 319C592 318.34 592 317.68 592 317C576.16 316.67 560.32 316.34 544 316C544 316.66 544 317.32 544 318C539.479 318.025 534.959 318.043 530.438 318.055C528.9 318.06 527.361 318.067 525.823 318.075C523.614 318.087 521.404 318.093 519.195 318.098C518.506 318.103 517.816 318.108 517.105 318.113C512.228 318.114 512.228 318.114 510 317C510 317.66 510 318.32 510 319C508.35 319 506.7 319 505 319C504.505 317.515 504.505 317.515 504 316C501.36 316 498.72 316 496 316C496 316.66 496 317.32 496 318C490.72 318 485.44 318 480 318C480 317.34 480 316.68 480 316C476.37 316.33 472.74 316.66 469 317C469.495 317.99 469.495 317.99 470 319C468.986 318.995 467.971 318.989 466.927 318.984C463.164 318.966 459.401 318.954 455.638 318.945C454.01 318.94 452.381 318.933 450.753 318.924C448.412 318.912 446.071 318.907 443.73 318.902C443.002 318.897 442.274 318.892 441.524 318.887C438.404 318.886 435.984 319.005 433 320C432.867 320.976 432.734 321.952 432.598 322.957C432.421 324.229 432.244 325.502 432.062 326.812C431.888 328.077 431.714 329.342 431.535 330.644C431 334 431 334 430 337C430 337.99 430 338.98 430 340C429.01 340 428.02 340 427 340C425.68 343.3 424.36 346.6 423 350C422.67 350 422.34 350 422 350C422.593 342.186 424.457 334.971 426.562 327.437C426.892 326.238 427.221 325.038 427.561 323.803C428.368 320.867 429.181 317.933 430 315Z" fill="#7117C2"/>
<path d="M279 754C279 755.65 279 757.3 279 759C278.113 758.917 277.226 758.835 276.312 758.75C272.259 759.056 270.838 760.162 268 763C267.67 763.99 267.34 764.98 267 766C263.555 768.296 261.062 768.54 257 769C256.67 771.31 256.34 773.62 256 776C255.402 775.649 254.804 775.299 254.188 774.938C251.892 773.667 251.892 773.667 249 775C247.732 776.268 247.732 776.268 246.438 777.562C245.633 778.367 244.829 779.171 244 780C243.34 780 242.68 780 242 780C241.722 780.959 241.722 780.959 241.438 781.938C240 784 240 784 236.375 784.75C234.704 784.874 234.704 784.874 233 785C232.222 787.333 231.576 789.614 231 792C229.515 791.01 229.515 791.01 228 790C227.01 790.66 226.02 791.32 225 792C223.68 792 222.36 792 221 792C221 793.32 221 794.64 221 796C217.357 799.864 214.205 800.592 209 801C208.979 801.598 208.959 802.196 208.938 802.812C208 805 208 805 204.5 806.625C202.768 807.306 202.768 807.306 201 808C199.769 810.463 199.928 812.28 200 815C198.02 815 196.04 815 194 815C193.67 814.34 193.34 813.68 193 813C192.67 813.99 192.34 814.98 192 816C188.535 816.495 188.535 816.495 185 817C184.783 818.176 184.783 818.176 184.562 819.375C184 822 184 822 183 824C182.072 823.917 181.144 823.835 180.188 823.75C176.951 823.657 176.951 823.657 175.188 825.812C173.88 828.07 173.88 828.07 173 831C171.68 831 170.36 831 169 831C167.4 831.445 165.816 831.947 164.25 832.5C163.451 832.778 162.652 833.057 161.828 833.344C161.225 833.56 160.622 833.777 160 834C160 835.98 160 837.96 160 840C158.02 839.67 156.04 839.34 154 839C157.125 832.032 161.637 829.054 168 825.062C169.419 824.146 169.419 824.146 170.867 823.21C172.737 822.003 174.61 820.801 176.488 819.605C179.542 817.653 182.555 815.648 185.562 813.625C202.848 802.102 220.133 790.578 237.418 779.055C238.171 778.553 238.924 778.05 239.7 777.533C241.229 776.514 242.757 775.495 244.286 774.477C247.925 772.052 251.562 769.625 255.195 767.191C274.902 754 274.902 754 279 754Z" fill="#761AD1"/>
<path d="M601.812 607.937C603.586 607.951 603.586 607.951 605.395 607.965C606.254 607.976 607.114 607.988 608 608C608.042 610.333 608.041 612.667 608 615C607 616 607 616 603.75 616.125C600.641 616.021 598.019 615.636 595 615C593.334 614.963 591.666 614.952 590 615C589.67 614.34 589.34 613.68 589 613C588.438 613.327 587.876 613.655 587.297 613.992C584.731 615.118 583.032 615.207 580.25 615.125C579.451 615.107 578.652 615.089 577.828 615.07C577.225 615.047 576.622 615.024 576 615C576 614.01 576 613.02 576 612C549.6 611.67 523.2 611.34 496 611C496 611.66 496 612.32 496 613C493.36 613 490.72 613 488 613C488 612.34 488 611.68 488 611C480.41 611.33 472.82 611.66 465 612C464.67 612.99 464.34 613.98 464 615C461.36 614.67 458.72 614.34 456 614C456 613.34 456 612.68 456 612C451.658 612.185 451.658 612.185 448 614C444.932 614.382 441.837 614.47 438.75 614.625C437.89 614.677 437.03 614.728 436.145 614.781C431.925 615.002 428.119 615.14 424 614C424 613.34 424 612.68 424 612C419.545 612.495 419.545 612.495 415 613C415 612.34 415 611.68 415 611C413.35 611 411.7 611 410 611C410 610.67 410 610.34 410 610C410.869 609.996 411.739 609.991 412.634 609.987C433.827 609.884 455.02 609.775 476.213 609.661C486.462 609.605 496.711 609.552 506.96 609.503C515.898 609.46 524.835 609.413 533.772 609.363C538.5 609.337 543.229 609.312 547.957 609.291C552.416 609.271 556.876 609.247 561.335 609.219C562.963 609.21 564.591 609.202 566.219 609.197C574.624 609.165 582.958 608.973 591.337 608.221C594.846 607.93 598.292 607.902 601.812 607.937Z" fill="#701DC6"/>
<path d="M418.971 175.979C419.827 176.026 420.684 176.073 421.566 176.121C422.52 176.17 423.473 176.218 424.455 176.268C425.48 176.324 426.506 176.38 427.562 176.438C445.827 177.514 445.827 177.514 464 176C464 176.66 464 177.32 464 178C465.278 177.928 466.556 177.856 467.873 177.781C483.347 177.009 498.798 176.916 514.289 176.938C515.933 176.94 515.933 176.94 517.609 176.942C525.615 176.954 533.62 176.976 541.625 177C549.674 177.024 557.723 177.044 565.772 177.056C568.949 177.063 572.126 177.075 575.303 177.088C583.708 177.108 592.052 177.085 600.435 176.434C606.368 175.999 612.118 176.134 618.036 176.585C625.215 177.128 632.366 177.126 639.562 177.098C640.975 177.096 642.387 177.095 643.799 177.094C647.455 177.09 651.111 177.08 654.767 177.069C658.521 177.059 662.276 177.054 666.031 177.049C673.354 177.038 680.677 177.021 688 177C688 177.33 688 177.66 688 178C681.349 179.005 674.862 179.138 668.142 179.12C666.964 179.121 665.785 179.122 664.57 179.123C661.316 179.124 658.062 179.121 654.808 179.116C651.292 179.112 647.776 179.113 644.26 179.114C638.174 179.115 632.089 179.112 626.003 179.106C617.204 179.098 608.405 179.095 599.607 179.094C585.33 179.092 571.053 179.085 556.777 179.076C542.911 179.066 529.046 179.059 515.18 179.055C514.325 179.055 513.47 179.055 512.589 179.054C508.298 179.053 504.008 179.052 499.718 179.051C464.145 179.04 428.573 179.023 393 179C393 178.67 393 178.34 393 178C398.192 177.128 403.118 176.903 408.375 177C410.923 177.046 413.451 177.048 416 177C417 176 417 176 418.971 175.979Z" fill="#920EF8"/>
<path d="M879 419C880.54 423.108 879.76 426.786 879 431C878.34 431.33 877.68 431.66 877 432C877.99 432.33 878.98 432.66 880 433C879.67 433.66 879.34 434.32 879 435C878.96 436.666 878.956 438.334 879 440C878.01 440 877.02 440 876 440C875.67 439.67 875.34 439.34 875 439C872.162 442.209 871.355 444.744 871 449C871.358 451.277 871.358 451.277 872 453C871.01 453.33 870.02 453.66 869 454C869 454.66 869 455.32 869 456C867.02 456.495 867.02 456.495 865 457C864.876 458.299 864.752 459.599 864.625 460.938C864.414 463.152 864.414 463.152 864 465C863.01 465.495 863.01 465.495 862 466C861.348 468.025 861.348 468.025 861 470C859.68 470 858.36 470 857 470C855.396 473.508 854.78 476.144 855 480C854.216 479.959 853.433 479.918 852.625 479.875C849.839 479.713 849.839 479.713 848 482C847.757 484.669 847.757 484.669 847.875 487.625C847.893 488.628 847.911 489.631 847.93 490.664C847.953 491.435 847.976 492.206 848 493C846.188 493.625 846.188 493.625 844 494C843.01 493.34 842.02 492.68 841 492C840.832 493.625 840.666 495.25 840.5 496.875C840.407 497.78 840.314 498.685 840.219 499.617C839.97 501.933 839.97 501.933 840 504C837.03 503.67 834.06 503.34 831 503C831.922 499.311 832.464 498.072 834.695 495.242C835.516 494.189 835.516 494.189 836.354 493.114C836.938 492.375 837.523 491.636 838.125 490.875C839.325 489.328 840.525 487.78 841.723 486.23C842.583 485.121 842.583 485.121 843.461 483.99C855.078 468.967 864.342 452.337 872 435C872.628 433.61 872.628 433.61 873.27 432.191C875.238 427.82 877.123 423.412 879 419Z" fill="#6F0FD0"/>
<path d="M334 679C334.66 679.66 335.32 680.32 336 681C335.625 684.625 335.625 684.625 335 688C334.34 688 333.68 688 333 688C333.66 689.32 334.32 690.64 335 692C334.546 692.598 334.093 693.196 333.625 693.812C332.367 695.506 331.17 697.245 330 699C330.66 699 331.32 699 332 699C332 699.66 332 700.32 332 701C332.66 701 333.32 701 334 701C334.33 700.34 334.66 699.68 335 699C335 700.65 335 702.3 335 704C332.03 704.495 332.03 704.495 329 705C328.835 706.258 328.67 707.516 328.5 708.812C328.361 709.874 328.361 709.874 328.219 710.957C327.947 713.155 327.947 713.155 328 716C327.67 716.99 327.34 717.98 327 719C326.961 720.666 326.955 722.334 327 724C324.03 724.495 324.03 724.495 321 725C321.66 725.66 322.32 726.32 323 727C322.01 727.66 321.02 728.32 320 729C319.67 729.99 319.34 730.98 319 732C318.34 732 317.68 732 317 732C316.67 732.99 316.34 733.98 316 735C313.237 735.597 310.84 736 308 736C305.85 736.95 305.85 736.95 304 738C304 739.65 304 741.3 304 743C300.622 743.845 298.325 744.108 295 743C296.333 741.667 297.667 740.333 299 739C299.75 738.206 300.5 737.412 301.273 736.594C304.013 733.988 306.718 732.155 309.938 730.188C318.558 724.532 322.264 718.765 325 709C325.646 706.979 326.291 704.958 326.938 702.938C328.75 697.048 330.272 691.111 331.693 685.117C332.898 680.102 332.898 680.102 334 679Z" fill="#7A17D7"/>
<path d="M606 457C606 457.33 606 457.66 606 458C590.284 460.392 574.567 460.265 558.713 460.203C554.949 460.19 551.185 460.189 547.422 460.187C540.325 460.181 533.228 460.164 526.132 460.144C518.039 460.122 509.947 460.111 501.855 460.101C485.237 460.08 468.618 460.045 452 460C452 459.67 452 459.34 452 459C467.314 458.082 482.595 457.794 497.934 457.684C500.388 457.663 502.843 457.642 505.297 457.621C511.709 457.566 518.12 457.516 524.532 457.468C529.725 457.428 534.918 457.384 540.111 457.339C546.385 457.286 552.66 457.235 558.934 457.184C560.099 457.174 561.264 457.164 562.464 457.155C576.976 457.037 591.487 456.975 606 457Z" fill="#A31BF9"/>
<path d="M893 324C893.33 324 893.66 324 894 324C895.333 342.82 895.333 342.82 894 352C894.66 352.33 895.32 352.66 896 353C896.212 358.192 895.591 362.127 894 367C894.66 367.66 895.32 368.32 896 369C894.68 371.31 893.36 373.62 892 376C892.99 376.33 893.98 376.66 895 377C894.67 378.98 894.34 380.96 894 383C894.66 383 895.32 383 896 383C895.67 384.98 895.34 386.96 895 389C894.381 389.124 893.762 389.248 893.125 389.375C890.809 389.872 890.809 389.872 889 392C888.354 394.258 888.354 394.258 887.938 396.812C887.782 397.665 887.626 398.517 887.465 399.395C887.311 400.254 887.158 401.114 887 402C886.67 403.667 886.338 405.334 886 407C886.66 407.33 887.32 407.66 888 408C887.34 408 886.68 408 886 408C886 410.64 886 413.28 886 416C884.35 416 882.7 416 881 416C881.483 411.223 882.217 406.918 883.663 402.318C887.781 389.201 889.356 375.609 891 362C891.102 361.158 891.205 360.316 891.31 359.448C892.125 352.109 892.331 344.751 892.562 337.375C892.606 336.085 892.649 334.794 892.693 333.465C892.799 330.31 892.901 327.155 893 324Z" fill="#7510D5"/>
<path d="M828 505C830.511 506.255 830.871 507.501 832 510C830 512 830 512 827.375 512.125C826.591 512.084 825.808 512.043 825 512C824.856 512.577 824.711 513.155 824.562 513.75C824.042 515.833 823.521 517.917 823 520C821.02 520 819.04 520 817 520C816.67 522.31 816.34 524.62 816 527C814.68 527.33 813.36 527.66 812 528C812 527.34 812 526.68 812 526C810.02 527.32 808.04 528.64 806 530C806.66 530.33 807.32 530.66 808 531C808 531.66 808 532.32 808 533C807.34 533 806.68 533 806 533C806 533.66 806 534.32 806 535C805.362 535.17 804.724 535.34 804.066 535.516C803.24 535.758 802.414 536 801.562 536.25C800.739 536.482 799.915 536.714 799.066 536.953C796.805 537.796 796.805 537.796 796.316 540.031C796.16 541.006 796.16 541.006 796 542C792.629 544.593 789.098 544.158 785 544C787.746 540.291 790.471 537.754 794.25 535.125C805.016 527.236 815.062 517.873 823.52 507.539C825 506 825 506 828 505Z" fill="#7617D2"/>
<path d="M374 530C374.66 530.33 375.32 530.66 376 531C376.074 534.866 376.063 538.279 375 542C375 545.411 375.491 548.631 376 552C374.02 552 372.04 552 370 552C367.684 556.848 367.583 561.436 367.346 566.736C367.087 571.825 367.087 571.825 366 574C366.66 574.99 367.32 575.98 368 577C367.625 579 367.625 579 367 581C367 581.99 367 582.98 367 584C364.69 583.67 362.38 583.34 360 583C360.417 574.508 362.532 566.705 364.875 558.562C365.581 556.064 366.287 553.565 366.992 551.066C367.333 549.874 367.675 548.682 368.026 547.454C369.175 543.38 370.247 539.288 371.293 535.187C372 533 372 533 374 530Z" fill="#7719D1"/>
<path d="M512 315C528.413 314.953 544.826 314.918 561.238 314.896C568.861 314.886 576.483 314.872 584.105 314.849C590.756 314.829 597.407 314.816 604.058 314.812C607.573 314.809 611.088 314.803 614.603 314.788C642.716 314.675 642.716 314.675 656 317C653.082 318.945 651.375 319.453 648 320C648 319.34 648 318.68 648 318C646.907 318.165 645.814 318.33 644.688 318.5C641 319 641 319 638 319C636.436 319.151 634.873 319.319 633.312 319.5C632.504 319.593 631.696 319.686 630.863 319.781C629.941 319.889 629.941 319.889 629 320C629 319.34 629 318.68 629 318C625.354 317.159 622 316.882 618.262 316.902C616.662 316.907 616.662 316.907 615.029 316.912C613.927 316.92 612.824 316.929 611.688 316.937C610.004 316.944 610.004 316.944 608.287 316.951C605.525 316.963 602.762 316.979 600 317C600 317.66 600 318.32 600 319C597.36 319 594.72 319 592 319C592 318.34 592 317.68 592 317C565.6 316.67 539.2 316.34 512 316C512 315.67 512 315.34 512 315Z" fill="#892DCB"/>
<path d="M184 596C185.569 599.138 184.027 601.919 183.062 605.125C180.422 614.236 178.097 623.419 175.812 632.625C175.639 633.324 175.465 634.024 175.286 634.745C174.467 638.039 173.65 641.334 172.834 644.63C171.896 648.421 170.95 652.211 170 656C167.401 652.178 168.339 649.409 169 645C168.82 642.29 168.424 639.688 168 637C168.99 636.34 169.98 635.68 171 635C170.505 633.515 170.505 633.515 170 632C169.34 631.67 168.68 631.34 168 631C168.99 630.01 169.98 629.02 171 628C171 628.66 171 629.32 171 630C171.66 630 172.32 630 173 630C174.825 625.377 175.39 621.08 175.754 616.172C176 614 176 614 177 612C177.071 609.959 177.084 607.917 177.062 605.875C177.053 604.779 177.044 603.684 177.035 602.555C177.024 601.712 177.012 600.869 177 600C177.784 599.897 178.567 599.794 179.375 599.688C182.33 599.224 182.33 599.224 184 596Z" fill="#9D20FA"/>
<path d="M694 410C694.66 410.99 695.32 411.98 696 413C687.217 424.28 687.217 424.28 682 429C681.34 429 680.68 429 680 429C679.67 429.99 679.34 430.98 679 432C677.68 431.34 676.36 430.68 675 430C675.65 429.078 675.65 429.078 676.312 428.137C676.869 427.328 677.426 426.52 678 425.688C678.835 424.487 678.835 424.487 679.688 423.262C681.251 421.003 681.251 421.003 681 418C681.99 417.34 682.98 416.68 684 416C684 416.66 684 417.32 684 418C684.66 418 685.32 418 686 418C686 417.34 686 416.68 686 416C686.99 416 687.98 416 689 416C689 415.34 689 414.68 689 414C689.99 413.67 690.98 413.34 692 413C692.66 412.01 693.32 411.02 694 410Z" fill="#991AF7"/>
<path d="M153 689C153.66 689 154.32 689 155 689C155 689.99 155 690.98 155 692C155.66 692.33 156.32 692.66 157 693C157.33 692.34 157.66 691.68 158 691C158.66 691 159.32 691 160 691C158.663 699.002 156.886 706.83 154.875 714.688C154.598 715.783 154.321 716.878 154.035 718.006C153.36 720.671 152.682 723.336 152 726C150 723 150 723 150.242 721.074C150.451 720.287 150.66 719.499 150.875 718.688C152.381 711.599 152.131 704.561 152.013 697.354C152 696.42 151.986 695.486 151.973 694.523C151.955 693.677 151.937 692.831 151.918 691.958C152 690 152 690 153 689Z" fill="#991CF9"/>
<path d="M415 611C431.5 611 448 611 465 611C464.67 612.32 464.34 613.64 464 615C461.36 614.67 458.72 614.34 456 614C456 613.34 456 612.68 456 612C451.658 612.185 451.658 612.185 448 614C444.932 614.382 441.837 614.47 438.75 614.625C437.89 614.677 437.03 614.728 436.145 614.781C431.925 615.002 428.119 615.14 424 614C424 613.34 424 612.68 424 612C419.545 612.495 419.545 612.495 415 613C415 612.34 415 611.68 415 611Z" fill="#7509DC"/>
<path d="M893 324C893.33 324 893.66 324 894 324C895.333 342.82 895.333 342.82 894 352C894.66 352.33 895.32 352.66 896 353C896.212 358.192 895.591 362.127 894 367C894.66 367.66 895.32 368.32 896 369C895.526 369.536 895.051 370.072 894.562 370.625C892.718 373.428 892.375 375.696 892 379C890.515 379.495 890.515 379.495 889 380C889.133 378.817 889.266 377.633 889.402 376.414C889.581 374.818 889.759 373.221 889.938 371.625C890.025 370.85 890.112 370.076 890.201 369.277C890.38 367.67 890.557 366.063 890.732 364.456C890.906 362.863 891.085 361.272 891.27 359.681C892.089 352.26 892.328 344.835 892.562 337.375C892.606 336.085 892.649 334.794 892.693 333.465C892.799 330.31 892.901 327.155 893 324Z" fill="#7D1CD8"/>
<path d="M358 586C358.66 586 359.32 586 360 586C360.081 588.584 360.141 591.165 360.188 593.75C360.225 594.844 360.225 594.844 360.264 595.961C360.31 599.345 360.253 601.579 358.488 604.516C357.997 605.005 357.506 605.495 357 606C357.66 606.66 358.32 607.32 359 608C358.34 608 357.68 608 357 608C357.33 609.32 357.66 610.64 358 612C356.02 612.99 354.04 613.98 352 615C351.673 608.877 352.879 603.59 354.438 597.688C354.668 596.782 354.898 595.876 355.135 594.943C356.837 588.325 356.837 588.325 358 586Z" fill="#6E0FCB"/>
<path d="M343 646C344.115 649.344 343.891 651.214 343.5 654.688C343.018 659.723 343.186 664.024 344 669C344 669.99 344 670.98 344 672C340.04 672.495 340.04 672.495 336 673C336.343 666.708 337.722 661.016 339.5 655C339.839 653.851 339.839 653.851 340.184 652.678C341.862 647.138 341.862 647.138 343 646Z" fill="#7C22D2"/>
<path d="M608 608C608.042 610.333 608.041 612.667 608 615C607 616 607 616 603.812 616.188C600.056 616.003 597.402 615.582 594 614C593.34 612.68 592.68 611.36 592 610C588.37 610 584.74 610 581 610C581 609.67 581 609.34 581 609C590.023 608.161 598.94 607.878 608 608Z" fill="#7C20D6"/>
<path d="M202 504C203.98 504 205.96 504 208 504C207.411 509.502 206.427 514.661 205 520C204.623 521.499 204.248 522.999 203.875 524.5C203.586 525.655 203.298 526.81 203 528C202.01 527.67 201.02 527.34 200 527C199.874 519.586 199.874 519.586 200.563 516.375C201.167 513.886 201.167 513.886 200.438 510.938C199.962 507.748 200.271 506.644 202 504Z" fill="#9D1EFA"/>
<path d="M421 351C421.99 351.33 422.98 351.66 424 352C423.67 352.99 423.34 353.98 423 355C423.33 355.33 423.66 355.66 424 356C424.233 360.535 424.233 360.535 423 363C423.281 365.008 423.611 367.01 424 369C419.375 373 419.375 373 416 373C417.141 354.859 417.141 354.859 421 351Z" fill="#670BC3"/>
<path d="M580.5 609.937C582.163 609.944 582.163 609.944 583.859 609.951C586.573 609.963 589.286 609.979 592 610C592 610.66 592 611.32 592 612C594.64 612 597.28 612 600 612C600 612.33 600 612.66 600 613C598.35 613.33 596.7 613.66 595 614C595 614.33 595 614.66 595 615C593.35 615 591.7 615 590 615C589.67 614.34 589.34 613.68 589 613C588.438 613.327 587.876 613.655 587.297 613.992C584.731 615.118 583.032 615.207 580.25 615.125C579.451 615.107 578.652 615.089 577.828 615.07C577.225 615.047 576.622 615.024 576 615C576 614.01 576 613.02 576 612C570.72 612 565.44 612 560 612C560 611.67 560 611.34 560 611C566.86 609.943 573.568 609.884 580.5 609.937Z" fill="#700AD4"/>
<path d="M781 545C781.99 545 782.98 545 784 545C784 546.98 784 548.96 784 551C782.886 551.124 781.773 551.248 780.625 551.375C776.969 551.647 776.969 551.647 775 554C775.32 556.603 775.32 556.603 776 559C771.684 559.762 768.256 560.161 764 559C765.489 554.45 769.186 552.659 773.062 550.312C777.256 547.939 777.256 547.939 781 545ZM782 548C781.67 548.66 781.34 549.32 781 550C781.66 550 782.32 550 783 550C782.67 549.34 782.34 548.68 782 548Z" fill="#7B22D5"/>
<path d="M879 419C880.54 423.108 879.76 426.786 879 431C878.01 431.495 878.01 431.495 877 432C877.99 432.33 878.98 432.66 880 433C879.67 433.66 879.34 434.32 879 435C878.96 436.666 878.956 438.334 879 440C878.01 440 877.02 440 876 440C875.67 439.67 875.34 439.34 875 439C874.402 439.763 873.804 440.526 873.188 441.312C871.53 443.348 869.897 445.198 868 447C867.67 446.34 867.34 445.68 867 445C867.855 442.934 867.855 442.934 869.188 440.438C871.653 435.697 873.882 430.905 876 426C876.302 425.301 876.603 424.603 876.914 423.883C877.613 422.257 878.307 420.629 879 419Z" fill="#7111D2"/>
<path d="M241 376C240.376 378.834 239.751 381.667 239.125 384.5C238.951 385.291 238.777 386.083 238.598 386.898C237.479 391.955 236.278 396.981 235 402C234.34 402 233.68 402 233 402C233.021 400.804 233.041 399.607 233.062 398.375C233.069 394.82 232.699 391.494 232 388C232.66 388 233.32 388 234 388C233.67 385.03 233.34 382.06 233 379C233.33 379.66 233.66 380.32 234 381C234.99 381 235.98 381 237 381C237 379.68 237 378.36 237 377C239 376 239 376 241 376Z" fill="#9C1DF9"/>
<path d="M413 378C413.66 378 414.32 378 415 378C415.625 380.812 415.625 380.812 416 384C415.01 385.485 415.01 385.485 414 387C414.66 387 415.32 387 416 387C415.67 387.99 415.34 388.98 415 390C415.33 390.33 415.66 390.66 416 391C415.835 392.134 415.67 393.269 415.5 394.438C414.68 397.833 414.68 397.833 416 400C412.04 400.495 412.04 400.495 408 401C408.658 395.732 409.733 390.699 411.062 385.562C411.249 384.831 411.435 384.099 411.627 383.346C412.081 381.563 412.54 379.781 413 378Z" fill="#761ECB"/>
<path d="M389 471C389.99 471.33 390.98 471.66 392 472C391.01 473.485 391.01 473.485 390 475C390.66 475 391.32 475 392 475C392 477.97 392 480.94 392 484C391.01 484 390.02 484 389 484C389.66 485.65 390.32 487.3 391 489C390.01 488.67 389.02 488.34 388 488C387.711 488.598 387.423 489.196 387.125 489.812C386 492 386 492 384 495C384.66 495.33 385.32 495.66 386 496C385.01 496.33 384.02 496.66 383 497C383.429 490.988 384.543 485.333 386 479.5C386.178 478.781 386.356 478.063 386.54 477.322C387.869 472.131 387.869 472.131 389 471Z" fill="#6E12CB"/>
<path d="M211 472C211.66 472 212.32 472 213 472C213 472.66 213 473.32 213 474C213.66 474 214.32 474 215 474C215.33 473.34 215.66 472.68 216 472C214.821 481.336 212.774 490.019 210 499C209.67 499 209.34 499 209 499C209 494.333 209 489.667 209 485C208.773 484.257 208.546 483.515 208.313 482.75C207.895 479.073 209.234 477.178 211 474C211 473.34 211 472.68 211 472Z" fill="#9A18F8"/>
<path d="M431 316C443.54 316 456.08 316 469 316C469.495 317.485 469.495 317.485 470 319C456.955 319.118 444.012 318.966 431 318C431 317.34 431 316.68 431 316Z" fill="#6104BE"/>
<path d="M220 440C220.99 440.33 221.98 440.66 223 441C223.66 440.67 224.32 440.34 225 440C223 448 221 456 219 464C218.67 464 218.34 464 218 464C217.875 458.25 217.875 458.25 219 456C218.01 455.67 217.02 455.34 216 455C216.99 455 217.98 455 219 455C218.34 454.67 217.68 454.34 217 454C216.375 451.938 216.375 451.938 216 450C216.66 450 217.32 450 218 450C217.773 448.907 217.546 447.814 217.312 446.688C217 443 217 443 218.438 441.062C218.953 440.712 219.469 440.361 220 440Z" fill="#9A1EF9"/>
<path d="M406 409C406.144 409.598 406.289 410.196 406.438 410.812C406.887 412.562 407.429 414.287 408 416C408 419.129 407.959 421.124 407 424C406.34 424.66 405.68 425.32 405 426C404.357 428.069 404.357 428.069 404 430C404.66 430 405.32 430 406 430C406.33 429.34 406.66 428.68 407 428C407.33 429.32 407.66 430.64 408 432C407.051 431.979 406.103 431.959 405.125 431.938C402.093 431.774 402.093 431.774 400 433C401.333 413.667 401.333 413.667 406 409Z" fill="#6D10C8"/>
<path d="M289 192C288.723 193.097 288.446 194.194 288.16 195.324C287.794 196.779 287.428 198.233 287.062 199.688C286.88 200.409 286.698 201.13 286.51 201.873C285.582 205.568 284.702 209.253 284 213C283.01 212.67 282.02 212.34 281 212C281.206 210.907 281.412 209.814 281.625 208.688C282.403 204.916 282.403 204.916 280 202C280 200.68 280 199.36 280 198C280.66 198 281.32 198 282 198C282.124 197.196 282.248 196.391 282.375 195.562C282.581 194.717 282.787 193.871 283 193C285 192 285 192 289 192Z" fill="#9720F7"/>
<path d="M854 464C854.99 464.33 855.98 464.66 857 465C846.536 481.518 846.536 481.518 841 489C840.67 489 840.34 489 840 489C840.553 484.97 841.156 480.98 842 477C843.65 476.67 845.3 476.34 847 476C847 475.01 847 474.02 847 473C848.311 471.644 849.647 470.314 851 469C852.043 467.36 853.056 465.699 854 464Z" fill="#F3EBF9"/>
<path d="M397 442C398.5 443.25 398.5 443.25 400 445C400 446.32 400 447.64 400 449C399.34 449 398.68 449 398 449C398 449.66 398 450.32 398 451C398.66 451.33 399.32 451.66 400 452C399.361 452.289 398.721 452.577 398.062 452.875C395.848 453.828 395.848 453.828 395 456C395.66 456 396.32 456 397 456C397 456.66 397 457.32 397 458C396.34 458 395.68 458 395 458C395 458.66 395 459.32 395 460C395.639 460.289 396.279 460.577 396.938 460.875C399 462 399 462 400 464C398.68 464 397.36 464 396 464C395.67 463.34 395.34 462.68 395 462C393.048 463.952 392.152 465.532 391 468C391.293 461.774 392.391 455.938 394 449.938C394.178 449.27 394.356 448.603 394.54 447.916C395.862 443.138 395.862 443.138 397 442Z" fill="#720DCE"/>
<path d="M139 752C139.99 752.33 140.98 752.66 142 753C142.99 752.67 143.98 752.34 145 752C144.723 753.097 144.446 754.194 144.16 755.324C143.794 756.779 143.428 758.233 143.062 759.688C142.88 760.409 142.698 761.13 142.51 761.873C141.582 765.568 140.702 769.253 140 773C139.67 772.34 139.34 771.68 139 771C138.34 771 137.68 771 137 771C137.021 769.783 137.041 768.566 137.062 767.312C137.068 764.08 136.788 761.151 136 758C136.66 758 137.32 758 138 758C138.33 756.02 138.66 754.04 139 752Z" fill="#971EF8"/>
<path d="M193 536C193.66 536.66 194.32 537.32 195 538C195.33 537.34 195.66 536.68 196 536C197.32 536 198.64 536 200 536C199.376 538.834 198.751 541.667 198.125 544.5C197.951 545.291 197.777 546.083 197.598 546.898C196.479 551.955 195.278 556.981 194 562C193.67 562 193.34 562 193 562C193 553.42 193 544.84 193 536Z" fill="#9B1BF9"/>
<path d="M382 498C384.236 501.353 384.173 501.907 383.625 505.688C383.514 506.496 383.403 507.304 383.289 508.137C383.194 508.752 383.098 509.366 383 510C382.34 510 381.68 510 381 510C381.66 510.66 382.32 511.32 383 512C383.125 515.625 383.125 515.625 383 519C380.69 519.66 378.38 520.32 376 521C376.608 516.063 377.6 511.478 379 506.688C379.351 505.474 379.701 504.261 380.062 503.012C381 500 381 500 382 498Z" fill="#720FCF"/>
<path d="M656 318C662.58 318.032 668.273 319.584 674.375 321.875C675.409 322.26 675.409 322.26 676.465 322.653C680.035 324.042 683.081 325.501 686 328C681.449 328.253 681.449 328.253 679 326.875C676.939 325.703 676.939 325.703 674.5 326.875C673.675 327.246 672.85 327.618 672 328C670.68 328 669.36 328 668 328C667.67 326.35 667.34 324.7 667 323C666.01 322.67 665.02 322.34 664 322C664 321.34 664 320.68 664 320C663.051 320.041 662.103 320.082 661.125 320.125C658 320 658 320 656 318Z" fill="#6D11C8"/>
<path d="M721 178C721 178.66 721 179.32 721 180C722.025 179.821 723.05 179.642 724.105 179.457C725.466 179.241 726.827 179.026 728.188 178.812C728.861 178.692 729.535 178.571 730.229 178.447C733.638 177.932 735.733 177.885 738.926 179.262C741 181 741 181 742 184C740.26 183.801 740.26 183.801 738.484 183.598C729.665 182.598 720.853 181.66 712 181C712 180.34 712 179.68 712 179C715.196 177.934 717.657 177.926 721 178Z" fill="#9215F5"/>
<path d="M270 256C270.66 256.66 271.32 257.32 272 258C271.676 260.43 271.676 260.43 270.883 263.445C270.606 264.522 270.329 265.598 270.043 266.707C269.74 267.835 269.437 268.963 269.125 270.125C268.83 271.261 268.535 272.396 268.23 273.566C267.497 276.381 266.753 279.191 266 282C265.34 281.67 264.68 281.34 264 281C264.142 278.291 264.288 275.583 264.438 272.875C264.496 271.734 264.496 271.734 264.557 270.57C265.029 262.139 265.029 262.139 266 258C268.062 256.625 268.062 256.625 270 256Z" fill="#981FF8"/>
<path d="M504 316C517.2 316 530.4 316 544 316C544 316.66 544 317.32 544 318C539.479 318.025 534.959 318.043 530.438 318.055C528.9 318.06 527.361 318.067 525.823 318.075C523.614 318.088 521.404 318.093 519.195 318.098C518.161 318.105 518.161 318.105 517.105 318.113C512.228 318.114 512.228 318.114 510 317C510 317.66 510 318.32 510 319C508.35 319 506.7 319 505 319C504.67 318.01 504.34 317.02 504 316Z" fill="#6605C6"/>
<path d="M693 591C692.402 591.248 691.804 591.495 691.188 591.75C688.714 593.164 687.566 594.651 686 597C686.33 597.66 686.66 598.32 687 599C685.35 599 683.7 599 682 599C682.66 598.67 683.32 598.34 684 598C684 597.34 684 596.68 684 596C683.361 596.474 682.721 596.949 682.062 597.438C678.078 599.47 674.415 599.721 670 600C670 599.01 670 598.02 670 597C672.06 596.183 674.123 595.371 676.188 594.563C677.336 594.11 678.485 593.658 679.668 593.191C684.239 591.557 688.156 590.862 693 591Z" fill="#7714D5"/>
<path d="M712 584C712 585.65 712 587.3 712 589C711.34 589 710.68 589 710 589C710 589.66 710 590.32 710 591C709.361 590.814 708.721 590.629 708.062 590.437C707.042 590.221 707.042 590.221 706 590C705.67 590.33 705.34 590.66 705 591C703.147 591.072 701.292 591.084 699.438 591.062C698.426 591.053 697.414 591.044 696.371 591.035C695.589 591.023 694.806 591.012 694 591C694 590.34 694 589.68 694 589C696.058 588.156 698.122 587.325 700.188 586.5C701.336 586.036 702.485 585.572 703.668 585.094C706.72 584.092 708.831 583.761 712 584Z" fill="#7710D5"/>
<path d="M858 462C858.66 462.66 859.32 463.32 860 464C859.786 466.991 858.707 468.408 856.938 470.875C854.806 474.313 854.623 476.042 855 480C854.257 479.897 853.515 479.794 852.75 479.688C849.755 479.71 849.755 479.71 847.875 482.5C847.256 483.325 846.637 484.15 846 485C845.01 485 844.02 485 843 485C843.412 484.429 843.825 483.858 844.25 483.27C849.168 476.365 853.623 469.254 858 462Z" fill="#781FD4"/>
<path d="M188 568C189.32 568 190.64 568 192 568C191.383 570.939 190.757 573.876 190.125 576.812C189.864 578.063 189.864 578.063 189.598 579.338C189.424 580.14 189.25 580.943 189.07 581.77C188.835 582.877 188.835 582.877 188.594 584.007C188 586 188 586 186 589C185.34 589 184.68 589 184 589C183.919 585.432 184.091 582.433 185 579C185.154 577.647 185.299 576.292 185.438 574.938C186 571 186 571 188 568Z" fill="#9A1DF8"/>
<path d="M656 601C656 602.65 656 604.3 656 606C653.03 605.505 653.03 605.505 650 605C649.67 605.66 649.34 606.32 649 607C648.34 607 647.68 607 647 607C647 606.34 647 605.68 647 605C645.948 605.33 644.896 605.66 643.812 606C640.611 606.84 638.259 607.197 635 607C634.67 606.34 634.34 605.68 634 605C640.314 600.791 648.589 600.72 656 601Z" fill="#7A16D5"/>
<path d="M277 224C277.33 224 277.66 224 278 224C279.096 230.12 278.763 234.555 277.062 240.5C276.867 241.227 276.672 241.954 276.471 242.703C275.993 244.472 275.499 246.237 275 248C274.34 248 273.68 248 273 248C271.747 241.458 271.88 235.361 274 229C274.66 228.34 275.32 227.68 276 227C276.33 226.01 276.66 225.02 277 224Z" fill="#971EF6"/>
<path d="M152 839C152 842 152 845 152 848C150.68 848 149.36 848 148 848C148 847.34 148 846.68 148 846C146.917 846.495 146.917 846.495 145.812 847C142.983 848.006 140.971 848.17 138 848C139.508 843.779 142.213 842.197 146 840C148.186 839.271 149.711 839 152 839Z" fill="#720CD8"/>
<path d="M374 530C374.66 530.33 375.32 530.66 376 531C376.074 534.866 376.063 538.279 375 542C375 545.411 375.491 548.631 376 552C374.02 551.67 372.04 551.34 370 551C369.875 548.625 369.875 548.625 370 546C370.66 545.34 371.32 544.68 372 544C371.856 543.443 371.711 542.886 371.562 542.312C370.758 539.004 371.338 536.312 372 533C372.66 532.01 373.32 531.02 374 530Z" fill="#6E0BCD"/>
<path d="M624 316C627.833 315.971 631.667 315.953 635.5 315.938C636.578 315.929 637.655 315.921 638.766 315.912C644.613 315.894 650.219 316.109 656 317C653.082 318.945 651.375 319.453 648 320C648 319.34 648 318.68 648 318C646.36 318.248 646.36 318.248 644.688 318.5C641 319 641 319 638 319C636.436 319.151 634.873 319.319 633.312 319.5C632.504 319.593 631.696 319.686 630.863 319.781C629.941 319.89 629.941 319.89 629 320C629 319.34 629 318.68 629 318C627.35 317.67 625.7 317.34 624 317C624 316.67 624 316.34 624 316Z" fill="#700CCA"/>
<path d="M279 754C279 755.65 279 757.3 279 759C278.113 758.917 277.226 758.835 276.312 758.75C272.259 759.056 270.838 760.162 268 763C267.67 763.99 267.34 764.98 267 766C264 768 264 768 261.312 767.625C260.549 767.419 259.786 767.213 259 767C260.462 763.24 262.283 761.907 265.75 759.938C266.642 759.428 267.534 758.919 268.453 758.395C276.479 754 276.479 754 279 754Z" fill="#7618D2"/>
<path d="M123 816C123.66 816.66 124.32 817.32 125 818C125.99 818 126.98 818 128 818C126.35 825.26 124.7 832.52 123 840C120.868 836.802 120.772 836.235 120.988 832.621C121.035 831.783 121.082 830.944 121.131 830.08C121.191 829.208 121.251 828.336 121.312 827.438C121.361 826.562 121.409 825.686 121.459 824.783C121.854 818.293 121.854 818.293 123 816Z" fill="#9017F6"/>
<path d="M284 744C286.062 744.438 286.062 744.438 288 745C285.178 747.953 282.257 750.434 278.938 752.812C278.08 753.438 277.223 754.063 276.34 754.707C275.568 755.134 274.796 755.56 274 756C273.01 755.67 272.02 755.34 271 755C271.875 749.25 271.875 749.25 273 747C273.99 747 274.98 747 276 747C276 747.66 276 748.32 276 749C277.985 748.733 277.985 748.733 280 748C280.33 747.01 280.66 746.02 281 745C281.66 745 282.32 745 283 745C283.33 744.67 283.66 744.34 284 744Z" fill="#F2EAF9"/>
<path d="M350 619C352 621 352 621 352.047 623.066C351.363 628.82 350.363 634.367 349 640C347.68 640 346.36 640 345 640C346.743 625.219 346.743 625.219 350 619Z" fill="#7516CD"/>
<path d="M254 318C254.66 318 255.32 318 256 318C254.398 326.767 252.205 335.371 250 344C248.938 342.188 248.938 342.188 248 340C248.495 338.515 248.495 338.515 249 337C249.069 334.939 249.085 332.875 249.062 330.812C249.053 329.726 249.044 328.639 249.035 327.52C249.024 326.688 249.012 325.857 249 325C249.99 324.67 250.98 324.34 252 324C253.225 320.992 253.225 320.992 254 318Z" fill="#A020FA"/>
<path d="M257 762C259 763 259 763 260 765C257.408 766.871 254.799 768.719 252.188 770.562C251.081 771.362 251.081 771.362 249.951 772.178C249.239 772.677 248.527 773.177 247.793 773.691C247.138 774.157 246.484 774.624 245.809 775.104C244 776 244 776 241 775C241.33 774.01 241.66 773.02 242 772C242.66 772 243.32 772 244 772C244 771.34 244 770.68 244 770C243.34 769.67 242.68 769.34 242 769C244.31 769.33 246.62 769.66 249 770C249 769.34 249 768.68 249 768C249.99 768 250.98 768 252 768C252.268 767.381 252.536 766.762 252.812 766.125C254 764 254 764 257 762Z" fill="#F2EBF9"/>
<path d="M886 396C887.374 399.818 886.68 403.073 886 407C886.66 407.33 887.32 407.66 888 408C887.34 408 886.68 408 886 408C886 410.64 886 413.28 886 416C884.35 416 882.7 416 881 416C881.635 409.137 882.891 402.218 886 396Z" fill="#7116CE"/>
<path d="M211.312 794.313C211.869 794.539 212.426 794.766 213 795C208.456 800.171 202.847 803.447 197 807C196.01 806.01 195.02 805.02 194 804C195.32 804 196.64 804 198 804C198 803.34 198 802.68 198 802C207.103 793.744 207.103 793.744 211.312 794.313Z" fill="#F5F0F9"/>
<path d="M634 448C635.698 448.252 637.385 448.576 639.062 448.938C639.982 449.132 640.901 449.327 641.848 449.527C642.913 449.761 642.913 449.761 644 450C640.548 451.965 637.115 452.775 633.25 453.625C632.08 453.885 630.909 454.146 629.703 454.414C628.811 454.607 627.919 454.801 627 455C625.875 451.25 625.875 451.25 627 449C628.454 449.031 628.454 449.031 629.938 449.062C632.875 449.356 632.875 449.356 634 448Z" fill="#9B18F9"/>
<path d="M704 346C707.711 348.699 708.254 352.723 709 357C709.213 360.008 709.193 362.987 709.125 366C709.116 366.775 709.107 367.549 709.098 368.348C709.074 370.232 709.039 372.116 709 374C708.01 373.67 707.02 373.34 706 373C706 371.35 706 369.7 706 368C706.33 368 706.66 368 707 368C707.33 366.02 707.66 364.04 708 362C707.01 361.67 706.02 361.34 705 361C705.33 358.69 705.66 356.38 706 354C705.34 354 704.68 354 704 354C704 351.36 704 348.72 704 346Z" fill="#7A0FDA"/>
<path d="M650 440C650.99 440.33 651.98 440.66 653 441C653 441.66 653 442.32 653 443C653.66 443 654.32 443 655 443C655 442.01 655 441.02 655 440C656.98 440 658.96 440 661 440C661 440.99 661 441.98 661 443C657.042 446.092 652.808 446.941 648 448C648.875 441.125 648.875 441.125 650 440Z" fill="#9A15F9"/>
<path d="M148 720C148.66 720 149.32 720 150 720C151.177 723.53 151.199 726.295 151 730C150.01 731.485 150.01 731.485 149 733C149 732.34 149 731.68 149 731C148.34 731 147.68 731 147 731C146.67 731.99 146.34 732.98 146 734C146 733.34 146 732.68 146 732C145.34 731.67 144.68 731.34 144 731C144.475 729.353 144.955 727.707 145.438 726.062C145.704 725.146 145.971 724.229 146.246 723.285C147 721 147 721 148 720Z" fill="#9216F5"/>
<path d="M232 403C232.66 403.66 233.32 404.32 234 405C233.539 408.039 233.539 408.039 232.625 411.625C232.329 412.814 232.032 414.002 231.727 415.227C231.487 416.142 231.247 417.057 231 418C230.34 418 229.68 418 229 418C228.34 417.34 227.68 416.68 227 416C226.67 416 226.34 416 226 416C225.67 413.36 225.34 410.72 225 408C227 408 229 408 231 408C231.33 406.35 231.66 404.7 232 403Z" fill="#9B19F9"/>
<path d="M349 609C349.66 609.66 350.32 610.32 351 611C350.578 617.471 348.632 623.747 347 630C346.34 629.34 345.68 628.68 345 628C345.319 625.998 345.654 623.998 346 622C345.794 620.969 345.588 619.938 345.375 618.875C345 616 345 616 346.375 613.812C347.179 612.915 347.179 612.915 348 612C348.33 611.01 348.66 610.02 349 609Z" fill="#F5EEFA"/>
<path d="M342 661C344.326 664.634 344.163 667.771 344 672C341.36 672.33 338.72 672.66 336 673C335.75 670.688 335.75 670.688 336 668C337.875 666.438 337.875 666.438 340 665C341.252 662.917 341.252 662.917 342 661Z" fill="#700DD1"/>
<path d="M666 432C666.722 432.186 667.444 432.371 668.187 432.562C671.128 433.02 673.141 432.735 676 432C676 432.66 676 433.32 676 434C674.216 435.28 672.371 436.477 670.5 437.625C668.969 438.572 668.969 438.572 667.406 439.539C666.612 440.021 665.818 440.503 665 441C663.864 437.283 664.333 435.529 666 432Z" fill="#991AF8"/>
<path d="M330 672C331.65 672.33 333.3 672.66 335 673C334.358 678.135 333.317 682.994 332 688C330.5 686.938 330.5 686.938 329 685C328.812 681.312 328.812 681.312 329 678C329.66 678 330.32 678 331 678C330.67 676.02 330.34 674.04 330 672Z" fill="#F2EAFA"/>
<path d="M168 658C169.572 661.143 168.04 663.929 167.062 667.125C166.867 667.784 166.672 668.442 166.471 669.121C165.987 670.749 165.494 672.375 165 674C163.68 674 162.36 674 161 674C161.618 666.466 161.618 666.466 163.438 664.25C164.211 663.631 164.211 663.631 165 663C165.697 661.683 166.37 660.351 167 659C167.33 658.67 167.66 658.34 168 658Z" fill="#9E25F9"/>
<path d="M371 536C371.759 538.986 372.412 541.975 373 545C372.01 545.33 371.02 545.66 370 546C370.062 547.33 370.062 547.33 370.125 548.688C369.999 552.034 369.321 553.97 368 557C367.631 558.659 367.287 560.325 367 562C366.34 562 365.68 562 365 562C365.605 555.936 366.863 550.345 368.562 544.5C368.796 543.678 369.03 542.855 369.271 542.008C369.842 540.004 370.42 538.002 371 536Z" fill="#7A27CF"/>
<path d="M341 640C343 643 343 643 342.828 645.27C342.637 646.109 342.447 646.948 342.25 647.812C342.051 648.693 341.853 649.573 341.648 650.48C340.903 653.375 340.033 656.195 339 659C338.34 658.67 337.68 658.34 337 658C337.511 651.563 338.729 646.041 341 640Z" fill="#F4EEFA"/>
<path d="M259 294C259.99 294.66 260.98 295.32 262 296C261.381 298.585 260.755 301.168 260.125 303.75C259.951 304.48 259.777 305.209 259.598 305.961C258.721 309.533 257.873 312.794 256 316C255.535 308.21 256.843 301.473 259 294Z" fill="#9D20F9"/>
<path d="M871 433C871.66 433 872.32 433 873 433C871.645 438.421 869.634 443.078 867 448C864.996 444.994 864.085 443.571 864 440C866.312 437.312 866.312 437.312 869 435C869.66 434.34 870.32 433.68 871 433Z" fill="#F2EAF9"/>
<path d="M228 420C228.33 420 228.66 420 229 420C228.517 426.205 227.667 431.999 226 438C223.443 434.165 223.96 432.341 224.375 427.812C224.486 426.54 224.597 425.268 224.711 423.957C224.806 422.981 224.902 422.005 225 421C225.66 421.33 226.32 421.66 227 422C227.33 421.34 227.66 420.68 228 420Z" fill="#9D20F9"/>
<path d="M727 579C727.33 580.32 727.66 581.64 728 583C723.684 583.762 720.256 584.161 716 583C720.005 578.862 721.295 577.649 727 579Z" fill="#7211D2"/>
<path d="M161 824C161.99 824.33 162.98 824.66 164 825C164.99 824.67 165.98 824.34 167 824C166.785 825.828 166.785 825.828 166 828C163.934 829.484 163.934 829.484 161.438 830.75C160.198 831.392 160.198 831.392 158.934 832.047C158.296 832.361 157.657 832.676 157 833C156.67 831.68 156.34 830.36 156 829C157.65 828.34 159.3 827.68 161 827C161 826.01 161 825.02 161 824Z" fill="#F5EFF9"/>
<path d="M871 443C872 446 872 446 871 449C871.389 451.143 871.389 451.143 872 453C867.25 454 867.25 454 865 454C865.25 451.125 865.25 451.125 866 448C868 446.812 868 446.812 870 446C870.33 445.01 870.66 444.02 871 443Z" fill="#6B08CB"/>
<path d="M411 390C412.65 390.33 414.3 390.66 416 391C415.814 392.114 415.629 393.227 415.438 394.375C414.683 397.826 414.683 397.826 416 400C414.02 400 412.04 400 410 400C410.33 396.7 410.66 393.4 411 390Z" fill="#6C08CB"/>
<path d="M888 299C888.99 299.495 888.99 299.495 890 300C890.33 299.67 890.66 299.34 891 299C892.875 305.769 893.67 313.134 892 320C891.67 320 891.34 320 891 320C890.496 317.251 889.996 314.501 889.5 311.75C889.357 310.973 889.214 310.195 889.066 309.395C888.931 308.64 888.796 307.886 888.656 307.109C888.468 306.072 888.468 306.072 888.275 305.015C888 303 888 303 888 299Z" fill="#8D2BE4"/>
<path d="M168 654C168.33 655.32 168.66 656.64 169 658C168.01 658.495 168.01 658.495 167 659C167.33 657.35 167.66 655.7 168 654ZM163 658C164.32 658.33 165.64 658.66 167 659C166.67 660.98 166.34 662.96 166 665C164.35 665.33 162.7 665.66 161 666C161 664.02 161 662.04 161 660C161.66 660 162.32 660 163 660C163 659.34 163 658.68 163 658Z" fill="#9513F7"/>
<path d="M366 574C368 577 368 577 367.625 579C367.419 579.66 367.213 580.32 367 581C367 581.99 367 582.98 367 584C364.69 583.67 362.38 583.34 360 583C360.312 581.062 360.312 581.062 361 579C361.99 578.67 362.98 578.34 364 578C364 577.01 364 576.02 364 575C364.66 574.67 365.32 574.34 366 574Z" fill="#720AD1"/>
<path d="M799 192C800.082 195.365 799.925 196.298 799 200C794.71 198.68 790.42 197.36 786 196C790 195 790 195 792 196C792 195.34 792 194.68 792 194C793.65 194.33 795.3 194.66 797 195C797.66 194.01 798.32 193.02 799 192Z" fill="#9C29F3"/>
<path d="M177 816C177.66 816 178.32 816 179 816C178.938 817.75 178.938 817.75 178 820C175.746 821.767 173.642 822.77 171 824C170.01 823.67 169.02 823.34 168 823C168.375 820.562 168.375 820.562 169 818C169.66 817.67 170.32 817.34 171 817C171 817.66 171 818.32 171 819C172.98 818.67 174.96 818.34 177 818C177 817.34 177 816.68 177 816Z" fill="#F5EFFA"/>
<path d="M202 504C203.98 504 205.96 504 208 504C207.41 509.508 206.433 514.649 205 520C203.946 516.839 204.043 514.304 204.098 511.008C203.97 508.385 203.167 506.334 202 504Z" fill="#A639F9"/>
<path d="M136 785C135.688 788.375 135.688 788.375 135 792C134.01 792.66 133.02 793.32 132 794C132 793.34 132 792.68 132 792C131.34 792 130.68 792 130 792C130 789.69 130 787.38 130 785C132.491 783.754 133.411 784.223 136 785Z" fill="#931AF5"/>
<path d="M307 729C307.99 729.33 308.98 729.66 310 730C306.46 732.916 302.837 735.501 299 738C298.34 737.34 297.68 736.68 297 736C297.66 736 298.32 736 299 736C299.66 734.02 300.32 732.04 301 730C302.32 730 303.64 730 305 730C305.66 729.67 306.32 729.34 307 729Z" fill="#F4ECF9"/>
<path d="M266 262C266.33 262 266.66 262 267 262C268.352 269.028 267.407 275.023 266 282C265.34 281.67 264.68 281.34 264 281C264.14 278.208 264.287 275.417 264.438 272.625C264.477 271.831 264.516 271.037 264.557 270.219C264.887 264.227 264.887 264.227 266 262Z" fill="#9C1BF9"/>
<path d="M290 177C290.66 177.33 291.32 177.66 292 178C291.67 178.66 291.34 179.32 291 180C291.66 180 292.32 180 293 180C293.33 179.01 293.66 178.02 294 177C294.66 177.33 295.32 177.66 296 178C295.34 179.32 294.68 180.64 294 182C293.34 182 292.68 182 292 182C291.711 183.134 291.423 184.269 291.125 185.438C290.754 186.613 290.382 187.789 290 189C289.01 189.495 289.01 189.495 288 190C288 187.36 288 184.72 288 182C288.66 182 289.32 182 290 182C289.67 181.01 289.34 180.02 289 179C289.33 178.34 289.66 177.68 290 177Z" fill="#9419F8"/>
<path d="M662 593C664.062 593.438 664.062 593.438 666 594C666 595.32 666 596.64 666 598C659.945 598.977 659.945 598.977 658 599C657.34 598.34 656.68 597.68 656 597C656 596.01 656 595.02 656 594C657.207 594.031 657.207 594.031 658.438 594.062C660.934 594.296 660.934 594.296 662 593Z" fill="#F4EBFA"/>
<path d="M425 333C425.99 333.99 426.98 334.98 428 336C426.457 340.721 424.922 345.417 423 350C422.67 350 422.34 350 422 350C422.515 344.147 423.454 338.67 425 333Z" fill="#701CC5"/>
<path d="M259 304C260.125 307.75 260.125 307.75 259 310C260.32 310.33 261.64 310.66 263 311C262.67 312.65 262.34 314.3 262 316C260.68 316.33 259.36 316.66 258 317C256.486 312.155 257.634 308.741 259 304Z" fill="#F1E3FA"/>
<path d="M292 744C291 747 291 747 289 748C289.66 748.66 290.32 749.32 291 750C285.375 752.125 285.375 752.125 282 751C282 750.34 282 749.68 282 749C283.426 747.711 283.426 747.711 285.312 746.375C285.927 745.929 286.542 745.483 287.176 745.023C289 744 289 744 292 744Z" fill="#7718D3"/>
<path d="M828 505C830.511 506.255 830.871 507.501 832 510C830 512 830 512 827.5 512.062C826.263 512.032 826.263 512.032 825 512C824.01 512.495 824.01 512.495 823 513C823.309 512.402 823.619 511.804 823.938 511.188C825.102 508.91 825.102 508.91 826 506C826.66 505.67 827.32 505.34 828 505Z" fill="#6D08D1"/>
<path d="M421 351C421.99 351.33 422.98 351.66 424 352C423.67 352.99 423.34 353.98 423 355C423.33 355.33 423.66 355.66 424 356C424.233 360.535 424.233 360.535 423 363C423.33 363.99 423.66 364.98 424 366C423.34 366 422.68 366 422 366C419.853 362.558 419.901 360.228 420.375 356.25C420.486 355.265 420.597 354.28 420.711 353.266C420.806 352.518 420.902 351.77 421 351Z" fill="#6508C1"/>
<path d="M243 347C244 348 245 349 246 350C246.66 349.01 247.32 348.02 248 347C247.885 348.418 247.757 349.834 247.625 351.25C247.555 352.039 247.486 352.828 247.414 353.641C246.985 356.086 246.214 357.848 245 360C244.67 358.02 244.34 356.04 244 354C243.34 354 242.68 354 242 354C241.957 352 241.959 350 242 348C242.33 347.67 242.66 347.34 243 347Z" fill="#9D21F8"/>
<path d="M258 288C259.32 288 260.64 288 262 288C262.81 290.915 263.218 292.461 262.062 295.312C261.537 296.148 261.537 296.148 261 297C260.34 296.67 259.68 296.34 259 296C258.34 296.66 257.68 297.32 257 298C257.33 294.7 257.66 291.4 258 288Z" fill="#9313F7"/>
<path d="M153 832C153.99 832.33 154.98 832.66 156 833C152.874 836.394 150.435 838.606 146 840C145.34 839.34 144.68 838.68 144 838C148.5 834 148.5 834 153 834C153 833.34 153 832.68 153 832Z" fill="#F7EFFA"/>
<path d="M744 571C744 572.65 744 574.3 744 576C743.237 575.814 742.474 575.629 741.688 575.438C738.91 574.772 738.91 574.772 736 576C735.67 574.68 735.34 573.36 735 572C737.957 570.522 740.742 570.94 744 571Z" fill="#7715D3"/>
<path d="M759 562C759 563.65 759 565.3 759 567C757.824 566.691 757.824 566.691 756.625 566.375C755.326 566.189 755.326 566.189 754 566C753.34 566.66 752.68 567.32 752 568C749.375 567.625 749.375 567.625 747 567C753.951 561.727 753.951 561.727 759 562Z" fill="#7B1FD5"/>
<path d="M845 484C845.99 484.33 846.98 484.66 848 485C848 487.64 848 490.28 848 493C846.68 493.33 845.36 493.66 844 494C843.403 491.237 843 488.84 843 486C843.66 486 844.32 486 845 486C845 485.34 845 484.68 845 484Z" fill="#6F09CE"/>
<path d="M826 210C828.312 210.562 828.312 210.562 831 212C832.348 214.28 833.114 216.481 834 219C829.89 217.55 826.567 215.489 823 213C823.99 212.01 824.98 211.02 826 210Z" fill="#9C26EF"/>
<path d="M137 847C135.425 848.178 133.84 849.342 132.25 850.5C131.368 851.15 130.487 851.799 129.578 852.469C127 854 127 854 123 854C123 853.34 123 852.68 123 852C123.99 852 124.98 852 126 852C126 851.34 126 850.68 126 850C132.964 845.58 132.964 845.58 137 847Z" fill="#F2E5F9"/>
<path d="M146 840C146.66 840.33 147.32 840.66 148 841C146.938 843.938 146.938 843.938 145 847C141.312 847.875 141.312 847.875 138 848C139.502 843.794 142.286 842.261 146 840Z" fill="#7B19DA"/>
<path d="M365 554C366.38 557.767 365.596 560.448 364.562 564.25C364.275 565.328 363.988 566.405 363.691 567.516C363.463 568.335 363.235 569.155 363 570C362.34 569.67 361.68 569.34 361 569C360.822 564.452 361.002 561.121 363 557C363.66 557 364.32 557 365 557C365 556.01 365 555.02 365 554Z" fill="#F3E9FA"/>
<path d="M770 555C771.65 555.33 773.3 555.66 775 556C775.33 556.99 775.66 557.98 776 559C771.684 559.762 768.256 560.161 764 559C764.99 558.01 765.98 557.02 767 556C767.99 556.33 768.98 556.66 770 557C770 556.34 770 555.68 770 555Z" fill="#700BCF"/>
<path d="M373 520C374.796 522.661 375.033 523.781 374.539 527.016C374.087 528.617 374.087 528.617 373.625 530.25C373.329 531.328 373.032 532.405 372.727 533.516C372.487 534.335 372.247 535.155 372 536C370 533 370 533 370.207 530.371C370.407 529.403 370.607 528.435 370.813 527.438C371.005 526.467 371.197 525.496 371.395 524.496C372 522 372 522 373 520Z" fill="#F0E9F8"/>
<path d="M860 452C860.99 452.66 861.98 453.32 863 454C861.63 457.995 859.743 460.8 857 464C855.589 460.793 856.106 459.716 857.375 456.312C859 453 859 453 860 452Z" fill="#F3E8FA"/>
<path d="M358 586C358.66 586 359.32 586 360 586C360.346 591.654 359.434 595.03 357 600C356.34 599.67 355.68 599.34 355 599C355.309 597.208 355.622 595.416 355.938 593.625C356.112 592.627 356.286 591.63 356.465 590.602C357 588 357 588 358 586Z" fill="#781CCE"/>
<path d="M450 457C457.26 457.33 464.52 457.66 472 458C472 458.33 472 458.66 472 459C471.115 459.038 471.115 459.038 470.212 459.076C467.537 459.192 464.862 459.315 462.188 459.438C460.794 459.496 460.794 459.496 459.373 459.557C458.034 459.619 458.034 459.619 456.668 459.684C455.435 459.739 455.435 459.739 454.177 459.795C451.821 459.934 451.821 459.934 449 461C448.67 461.99 448.34 462.98 448 464C447.67 463.34 447.34 462.68 447 462C447.99 460.35 448.98 458.7 450 457Z" fill="#940FF7"/>
<path d="M269 270C270.033 272.788 270.045 273.868 269.062 276.75C268.712 277.493 268.361 278.235 268 279C268.66 279.33 269.32 279.66 270 280C268.63 283.161 268.011 283.993 265 286C265.392 280.045 266.371 275.372 269 270Z" fill="#F6E7FB"/>
<path d="M177 600C178.32 600 179.64 600 181 600C180.886 601.605 180.758 603.209 180.625 604.812C180.555 605.706 180.486 606.599 180.414 607.52C180 610 180 610 178 613C177 612 177 612 176.902 609.277C176.914 608.175 176.926 607.073 176.938 605.938C176.947 604.833 176.956 603.728 176.965 602.59C176.976 601.735 176.988 600.881 177 600Z" fill="#9814F5"/>
<path d="M220 448C220.66 448.66 221.32 449.32 222 450C221.547 454.758 220.195 459.381 219 464C218.67 464 218.34 464 218 464C217.875 458.25 217.875 458.25 219 456C218.01 455.67 217.02 455.34 216 455C216.99 455 217.98 455 219 455C219.33 452.69 219.66 450.38 220 448Z" fill="#A22BF9"/>
<path d="M871 257C871.66 257 872.32 257 873 257C873 257.66 873 258.32 873 259C873.99 259.33 874.98 259.66 876 260C877.45 262.683 878.118 264.273 877.625 267.312C877.419 267.869 877.213 268.426 877 269C871 261.286 871 261.286 871 257Z" fill="#921EEF"/>
<path d="M695 334C696.98 335.65 698.96 337.3 701 339C700.67 340.65 700.34 342.3 700 344C698.68 343.67 697.36 343.34 696 343C695.67 340.03 695.34 337.06 695 334Z" fill="#6F0AD1"/>
<path d="M300 738C302.125 738.375 302.125 738.375 304 739C303.67 740.65 303.34 742.3 303 744C300.69 744 298.38 744 296 744C295.67 743.34 295.34 742.68 295 742C295.99 741.34 296.98 740.68 298 740C298.66 739.34 299.32 738.68 300 738Z" fill="#710BD4"/>
<path d="M316 726C317.32 726.33 318.64 726.66 320 727C319.67 728.65 319.34 730.3 319 732C316.69 732 314.38 732 312 732C312.66 731.67 313.32 731.34 314 731C314.722 729.356 315.394 727.689 316 726ZM316 732C316.33 732.66 316.66 733.32 317 734C316.01 733.67 315.02 733.34 314 733C314.66 732.67 315.32 732.34 316 732Z" fill="#7910DC"/>
<path d="M334 679C334.66 679.66 335.32 680.32 336 681C335.625 684.625 335.625 684.625 335 688C334.34 688 333.68 688 333 688C333 688.99 333 689.98 333 691C332.34 691 331.68 691 331 691C330.67 691.99 330.34 692.98 330 694C330.674 688.742 332.243 683.974 334 679Z" fill="#7E21D5"/>
<path d="M349 627C350.45 629.341 351.043 630.58 350.758 633.359C350.549 634.148 350.34 634.937 350.125 635.75C349.921 636.549 349.718 637.348 349.508 638.172C349.34 638.775 349.173 639.378 349 640C347.68 640 346.36 640 345 640C346.068 635.499 347.14 631.251 349 627Z" fill="#720CD2"/>
<path d="M817 511C817.66 511.99 818.32 512.98 819 514C816.69 516.31 814.38 518.62 812 521C811.01 520.34 810.02 519.68 809 519C810.623 517.291 812.293 515.626 814 514C814.66 514 815.32 514 816 514C816.33 513.01 816.66 512.02 817 511Z" fill="#F2E9FA"/>
<path d="M892 309C895 312 895 312 895.398 314.191C895.391 314.974 895.383 315.756 895.375 316.562C895.383 317.348 895.39 318.133 895.398 318.941C895.267 319.621 895.135 320.3 895 321C894.01 321.66 893.02 322.32 892 323C892 318.38 892 313.76 892 309Z" fill="#8010E2"/>
<path d="M197 807C197.99 807.33 198.98 807.66 200 808C200 810.31 200 812.62 200 815C198.02 815 196.04 815 194 815C194.464 814.134 194.464 814.134 194.938 813.25C195.926 811.157 196.517 809.255 197 807Z" fill="#6B09CD"/>
<path d="M186 589C186.66 589.66 187.32 590.32 188 591C189.317 591.697 190.649 592.37 192 593C189.781 596.329 188.653 596.75 185 598C185.33 595.03 185.66 592.06 186 589Z" fill="#F5E9FA"/>
<path d="M796 539C796 539.99 796 540.98 796 542C792.366 544.326 789.229 544.163 785 544C786 542.062 786 542.062 788 540C790.699 539.335 793.206 539.183 796 539Z" fill="#6F0DCF"/>
<path d="M678 425C678.33 425.66 678.66 426.32 679 427C680.65 426.34 682.3 425.68 684 425C683.34 426.32 682.68 427.64 682 429C681.34 429 680.68 429 680 429C679.67 429.99 679.34 430.98 679 432C677.68 431.34 676.36 430.68 675 430C675.99 428.35 676.98 426.7 678 425Z" fill="#A022FA"/>
<path d="M225 413C225.99 413 226.98 413 228 413C230.125 417.625 230.125 417.625 229 421C228.01 421.66 227.02 422.32 226 423C226 422.01 226 421.02 226 420C225.34 419.67 224.68 419.34 224 419C224.66 419 225.32 419 226 419C225.649 418.381 225.299 417.762 224.938 417.125C224.628 416.424 224.319 415.723 224 415C224.33 414.34 224.66 413.68 225 413Z" fill="#9513F8"/>
<path d="M241 357C241.99 357 242.98 357 244 357C245.231 363.4 245.231 363.4 244.063 366.438C243.712 366.953 243.361 367.469 243 368C243 367.01 243 366.02 243 365C242.34 365 241.68 365 241 365C240.2 361.713 239.903 360.29 241 357Z" fill="#9F22F8"/>
<path d="M688 329C690.438 329.812 690.438 329.812 693 331C693.33 331.99 693.66 332.98 694 334C693.67 334.66 693.34 335.32 693 336C691.333 336 689.667 336 688 336C688 333.69 688 331.38 688 329Z" fill="#6F0CCB"/>
<path d="M807 201C810.375 201.547 812.082 202.055 815 204C815 204.99 815 205.98 815 207C811.179 206.469 808.938 205.503 806 203C806.33 202.34 806.66 201.68 807 201Z" fill="#9E30F2"/>
<path d="M806 521C807.32 521.66 808.64 522.32 810 523C807.36 524.98 804.72 526.96 802 529C802 525 802 525 804 522.75C804.99 521.884 804.99 521.884 806 521Z" fill="#EFE3F8"/>
<path d="M873 432C874.445 436.756 872.882 439.824 871.062 444.312C870 446 870 446 867 447C868.599 441.804 870.741 436.934 873 432Z" fill="#7F2ED4"/>
<path d="M883 391C884.32 391 885.64 391 887 391C886.34 393.97 885.68 396.94 885 400C884.34 399.67 883.68 399.34 883 399C882.312 395.5 882.312 395.5 882 392C882.33 391.67 882.66 391.34 883 391Z" fill="#EDE1F8"/>
<path d="M412 568C413.32 568 414.64 568 416 568C415.67 570.64 415.34 573.28 415 576C414.01 576 413.02 576 412 576C410.875 573.688 410.875 573.688 410 571C410.66 570.01 411.32 569.02 412 568Z" fill="#8410E7"/>
<path d="M135 848C135.66 848.33 136.32 848.66 137 849C136.67 851.31 136.34 853.62 136 856C134.35 855.67 132.7 855.34 131 855C131.602 852.98 132.273 850.979 133 849C133.66 848.67 134.32 848.34 135 848Z" fill="#760DDC"/>
<path d="M712 584C712 585.65 712 587.3 712 589C711.34 589 710.68 589 710 589C710 589.66 710 590.32 710 591C709.01 591 708.02 591 707 591C706.67 589.35 706.34 587.7 706 586C709 584 709 584 712 584Z" fill="#7209D2"/>
<path d="M878 419C877.532 423.056 877.12 426.466 875 430C874.34 430 873.68 430 873 430C873.458 426.531 873.891 423.326 875 420C877 419 877 419 878 419Z" fill="#EEE1F8"/>
<path d="M174 823C174.99 823.33 175.98 823.66 177 824C176.526 824.598 176.051 825.196 175.562 825.812C173.835 828.004 173.835 828.004 173 831C172.01 830.67 171.02 830.34 170 830C170.602 827.98 171.273 825.979 172 824C172.66 823.67 173.32 823.34 174 823Z" fill="#6C08D2"/>
<path d="M197 546C197.978 549.186 198.047 551.813 197.75 555.125C197.683 555.994 197.616 556.863 197.547 557.758C197 560 197 560 194 562C194.59 556.492 195.567 551.351 197 546Z" fill="#ECCFFB"/>
<path d="M781 545C781.99 545 782.98 545 784 545C784 546.98 784 548.96 784 551C781 552 781 552 778 551C779.875 546.125 779.875 546.125 781 545ZM782 548C781.67 548.66 781.34 549.32 781 550C781.66 550 782.32 550 783 550C782.67 549.34 782.34 548.68 782 548Z" fill="#7513D3"/>
<path d="M397 442C398.5 443.25 398.5 443.25 400 445C400 446.32 400 447.64 400 449C399.34 449 398.68 449 398 449C398 449.66 398 450.32 398 451C398.66 451.33 399.32 451.66 400 452C398.35 452.66 396.7 453.32 395 454C395.521 452.047 396.042 450.094 396.562 448.141C397.133 445.711 397.133 445.711 397 442Z" fill="#7009CE"/>
<path d="M158 833C158.66 833.33 159.32 833.66 160 834C160 835.98 160 837.96 160 840C157.03 839.505 157.03 839.505 154 839C155.32 837.02 156.64 835.04 158 833Z" fill="#6F0DD3"/>
<path d="M402 600C403.65 600 405.3 600 407 600C406.453 603.375 405.945 605.082 404 608C404 607.01 404 606.02 404 605C403.34 605 402.68 605 402 605C402 603.35 402 601.7 402 600Z" fill="#810EE5"/>
<path d="M837 488C837.99 488.33 838.98 488.66 840 489C837.525 492.465 837.525 492.465 835 496C834.34 495.67 833.68 495.34 833 495C834.074 492.085 834.778 490.222 837 488Z" fill="#F3EAF9"/>
<path d="M842 486C842.66 486.99 843.32 487.98 844 489C843.67 489.99 843.34 490.98 843 492C841.677 492.372 840.343 492.706 839 493C838.67 493.66 838.34 494.32 838 495C837.34 494.67 836.68 494.34 836 494C837.98 491.36 839.96 488.72 842 486Z" fill="#822AD4"/>
<path d="M420 352C420.938 355.067 421.018 357.45 420.625 360.625C420.535 361.401 420.445 362.177 420.352 362.977C420 365 420 365 419 367C418.34 367 417.68 367 417 367C417.642 361.865 418.683 357.006 420 352Z" fill="#7A31C6"/>
<path d="M156 833C156.66 833.33 157.32 833.66 158 834C155.525 837.465 155.525 837.465 153 841C152.67 840.34 152.34 839.68 152 839C150.68 839.33 149.36 839.66 148 840C150.516 837.394 153.051 835.106 156 833Z" fill="#8A36D9"/>
<path d="M327 703C327.33 703 327.66 703 328 703C328.108 704.603 328.186 706.207 328.25 707.812C328.296 708.706 328.343 709.599 328.391 710.52C328 713 328 713 325.984 714.824C325.33 715.212 324.675 715.6 324 716C324.31 714.395 324.623 712.791 324.938 711.188C325.112 710.294 325.286 709.401 325.465 708.48C326 706 326 706 327 703Z" fill="#832AD6"/>
<path d="M442 480C443.125 483.75 443.125 483.75 442 486C442.66 486 443.32 486 444 486C444 486.99 444 487.98 444 489C443.01 489.66 442.02 490.32 441 491C440.34 491.99 439.68 492.98 439 494C439.715 489.236 440.795 484.658 442 480Z" fill="#ECD3FB"/>
<path d="M122 829C122.99 829 123.98 829 125 829C124.34 832.63 123.68 836.26 123 840C120.214 835.82 121.204 833.853 122 829Z" fill="#9C2BF8"/>
<path d="M181 818C181.99 818.33 182.98 818.66 184 819C184 820.65 184 822.3 184 824C182.02 824 180.04 824 178 824C179.875 819.125 179.875 819.125 181 818Z" fill="#6908CE"/>
<path d="M182 816C182.33 816.66 182.66 817.32 183 818C179.509 822.004 177.35 823.627 172 824C175.023 820.745 178.257 818.382 182 816Z" fill="#8435D2"/>
<path d="M714 580C711.472 582.799 709.796 584.458 706 585C706 584.34 706 583.68 706 583C705.34 582.67 704.68 582.34 704 582C705.288 581.47 706.58 580.951 707.875 580.437C708.594 580.147 709.314 579.857 710.055 579.559C712 579 712 579 714 580Z" fill="#F5EEFB"/>
<path d="M830 497C830.99 497.33 831.98 497.66 833 498C831.188 501 831.188 501 829 504C828.01 504 827.02 504 826 504C826 501 826 501 828 498.812C828.66 498.214 829.32 497.616 830 497Z" fill="#F1E6F8"/>
<path d="M209 487C209.66 487 210.32 487 211 487C212.369 491.517 211.471 494.588 210 499C209.67 499 209.34 499 209 499C209 495.04 209 491.08 209 487Z" fill="#9F21F9"/>
<path d="M860 461C861.32 461.66 862.64 462.32 864 463C863.333 464.333 862.667 465.667 862 467C861.67 467.99 861.34 468.98 861 470C860.34 470 859.68 470 859 470C858.902 463.848 858.902 463.848 859 462C859.33 461.67 859.66 461.34 860 461Z" fill="#6C0ACF"/>
<path d="M655 440C656.98 440 658.96 440 661 440C661 440.99 661 441.98 661 443C658.625 444.75 658.625 444.75 656 446C655.34 445.67 654.68 445.34 654 445C654.33 443.35 654.66 441.7 655 440Z" fill="#A120F9"/>
<path d="M428 318C429.456 322.521 428.27 325.516 427 330C424.433 326.15 425.167 324.414 426 320C426.66 320 427.32 320 428 320C428 319.34 428 318.68 428 318Z" fill="#F2E9F7"/>
<path d="M206 800C206.33 800.66 206.66 801.32 207 802C205.625 803.5 205.625 803.5 204 805C203.34 805 202.68 805 202 805C201.67 805.99 201.34 806.98 201 808C199.68 807.34 198.36 806.68 197 806C199.97 804.02 202.94 802.04 206 800Z" fill="#8533D4"/>
<path d="M131 796C131.66 796.33 132.32 796.66 133 797C132.34 800.63 131.68 804.26 131 808C130.67 808 130.34 808 130 808C129.777 806.565 129.572 805.127 129.375 803.688C129.259 802.887 129.143 802.086 129.023 801.262C129 799 129 799 131 796Z" fill="#9620F6"/>
<path d="M258 765C260 766 260 766 261 768C260.072 768.155 260.072 768.155 259.125 768.312C256.635 768.875 256.635 768.875 255 772C253.68 771.34 252.36 770.68 251 770C253.31 768.35 255.62 766.7 258 765Z" fill="#7D28D2"/>
<path d="M748 560C748.99 560.33 749.98 560.66 751 561C751 561.66 751 562.32 751 563C751.66 563.33 752.32 563.66 753 564C750.688 565.125 750.688 565.125 748 566C747.01 565.34 746.02 564.68 745 564C745.66 563.34 746.32 562.68 747 562C747.33 561.34 747.66 560.68 748 560Z" fill="#F4EDFA"/>
<path d="M808 531C808 531.66 808 532.32 808 533C807.34 533 806.68 533 806 533C806 533.66 806 534.32 806 535C803.69 535.66 801.38 536.32 799 537C800 534 800 534 802.375 532.312C805 531 805 531 808 531Z" fill="#6C09CD"/>
<path d="M644 450C640.175 452.391 636.403 452.56 632 453C635.691 448.756 638.692 448.673 644 450Z" fill="#A427F9"/>
<path d="M592 316C594.64 316 597.28 316 600 316C600 316.99 600 317.98 600 319C597.36 319 594.72 319 592 319C592 318.01 592 317.02 592 316Z" fill="#6606C5"/>
<path d="M741 181C741.33 181.99 741.66 182.98 742 184C738.04 183.67 734.08 183.34 730 183C734.216 180.892 736.398 180.823 741 181Z" fill="#9E23F5"/>
<path d="M279 754C279 755.65 279 757.3 279 759C277.35 759 275.7 759 274 759C273.67 758.34 273.34 757.68 273 757C274.393 754.214 275.989 754 279 754Z" fill="#6E09D2"/>
<path d="M709 585C708.67 585.99 708.34 586.98 708 588C704.7 588 701.4 588 698 588C705.286 583.143 705.286 583.143 709 585Z" fill="#8C37D9"/>
<path d="M355 582C356.32 582 357.64 582 359 582C358.34 584.31 357.68 586.62 357 589C356.34 589 355.68 589 355 589C354.619 587.009 354.287 585.007 354 583C354.33 582.67 354.66 582.34 355 582Z" fill="#F5F2F9"/>
<path d="M776 544C777.32 544.66 778.64 545.32 780 546C778.68 547.32 777.36 548.64 776 550C774.68 549.34 773.36 548.68 772 548C773.32 547.67 774.64 547.34 776 547C776 546.01 776 545.02 776 544Z" fill="#F0E7F7"/>
<path d="M804 527C805.32 527.33 806.64 527.66 808 528C805.688 530.5 805.688 530.5 803 533C802.01 533 801.02 533 800 533C801.32 531.02 802.64 529.04 804 527Z" fill="#7111D4"/>
<path d="M797 529C798.32 529.66 799.64 530.32 801 531C798.69 532.65 796.38 534.3 794 536C795 532 795 532 797 529Z" fill="#ECDCF7"/>
<path d="M436 494C436.66 494 437.32 494 438 494C437.447 498.03 436.844 502.02 436 506C435.67 506 435.34 506 435 506C434.973 504.375 434.954 502.75 434.938 501.125C434.926 500.22 434.914 499.315 434.902 498.383C435 496 435 496 436 494Z" fill="#8F1EEA"/>
<path d="M396 443C397.117 444.672 397.117 444.672 398 447C397.32 449.578 397.32 449.578 396.125 452.25C395.736 453.142 395.346 454.034 394.945 454.953C394.633 455.629 394.321 456.304 394 457C392.749 453.453 393.277 451.277 394.437 447.75C394.725 446.858 395.012 445.966 395.309 445.047C395.537 444.371 395.765 443.696 396 443Z" fill="#802DD1"/>
<path d="M267 262C267.66 262 268.32 262 269 262C270.369 266.517 269.471 269.588 268 274C266.673 270.019 266.931 266.15 267 262Z" fill="#A434F7"/>
<path d="M164 674C164.125 679.75 164.125 679.75 163 682C162.34 682 161.68 682 161 682C161 679.69 161 677.38 161 675C163 674 163 674 164 674Z" fill="#9B1CFB"/>
<path d="M419 560C421 563 421 563 420.625 565.688C420.419 566.451 420.213 567.214 420 568C419.01 568 418.02 568 417 568C417.66 565.36 418.32 562.72 419 560ZM422 560C422 563 422 563 422 563V560Z" fill="#F1E0FA"/>
<path d="M789 537C788.812 538.812 788.812 538.812 788 541C785.438 542.75 785.438 542.75 783 544C783.602 541.98 784.273 539.979 785 538C787 537 787 537 789 537Z" fill="#EDE1F7"/>
<path d="M768 186C769.625 188 769.625 188 771 190C769.742 189.876 768.484 189.752 767.188 189.625C766.126 189.521 766.126 189.521 765.043 189.414C763 189 763 189 760 187C765.75 186 765.75 186 768 186Z" fill="#9F34EE"/>
<path d="M296 738C296 738.99 296 739.98 296 741C294.35 741.66 292.7 742.32 291 743C290.34 742.34 289.68 741.68 289 741C289.66 741 290.32 741 291 741C291 740.34 291 739.68 291 739C294 738 294 738 296 738Z" fill="#F2E9F8"/>
<path d="M322 712C322.99 712 323.98 712 325 712C323.25 717.75 323.25 717.75 321 720C320.958 717.667 320.959 715.333 321 713C321.33 712.67 321.66 712.34 322 712Z" fill="#EEE3F8"/>
<path d="M367 551C367.33 551 367.66 551 368 551C368 554.3 368 557.6 368 561C367.01 561.33 366.02 561.66 365 562C365.875 554.375 365.875 554.375 367 551Z" fill="#8334D0"/>
<path d="M382 494C383.274 496.547 382.802 497.428 382.062 500.125C381.868 500.849 381.673 501.574 381.473 502.32C381.317 502.875 381.161 503.429 381 504C379.438 502.812 379.438 502.812 378 501C378.125 498.438 378.125 498.438 379 496C379.99 495.34 380.98 494.68 382 494Z" fill="#E2CDF4"/>
<path d="M243 352C244.858 355.135 245.201 357.375 245 361C244.01 360.67 243.02 360.34 242 360C241.375 357.688 241.375 357.688 241 355C241.66 354.01 242.32 353.02 243 352Z" fill="#940EF7"/>
<path d="M209 794C210.32 794.33 211.64 794.66 213 795C211.35 796.65 209.7 798.3 208 800C207.67 799.01 207.34 798.02 207 797C207.66 796.01 208.32 795.02 209 794Z" fill="#F2E8F8"/>
<path d="M144 738C144.66 738 145.32 738 146 738C147.25 745.625 147.25 745.625 145 749C143.824 745.326 143.926 741.831 144 738Z" fill="#9823F9"/>
<path d="M321 720C321.33 720.66 321.66 721.32 322 722C321.67 722.99 321.34 723.98 321 725C321.66 725.66 322.32 726.32 323 727C322.01 727.33 321.02 727.66 320 728C319.01 727.01 318.02 726.02 317 725C318.32 723.35 319.64 721.7 321 720Z" fill="#8221DD"/>
<path d="M377 514C377.99 514.33 378.98 514.66 380 515C380 516.65 380 518.3 380 520C378.68 520.33 377.36 520.66 376 521C376.33 518.69 376.66 516.38 377 514Z" fill="#7E23D4"/>
<path d="M862 456C864 458 864 458 864 462C862.35 462 860.7 462 859 462C860.875 457.125 860.875 457.125 862 456Z" fill="#7D25D4"/>
<path d="M232 403C232.66 403.66 233.32 404.32 234 405C233.758 407.383 233.758 407.383 233.125 410.125C232.921 411.035 232.718 411.945 232.508 412.883C232.34 413.581 232.173 414.28 232 415C230 412 230 412 230.242 409.738C230.555 408.538 230.555 408.538 230.875 407.312C231.079 406.504 231.282 405.696 231.492 404.863C231.66 404.248 231.827 403.634 232 403Z" fill="#A72BF9"/>
<path d="M254 318C254.66 318 255.32 318 256 318C255.34 321.3 254.68 324.6 254 328C252 324 252 324 252.875 320.75C253.246 319.842 253.618 318.935 254 318Z" fill="#A332FA"/>
<path d="M265 753C265.66 753 266.32 753 267 753C267 753.66 267 754.32 267 755C268.65 755.33 270.3 755.66 272 756C271.01 757.485 271.01 757.485 270 759C268.062 758.25 268.062 758.25 266 757C265.25 754.875 265.25 754.875 265 753Z" fill="#EDDFF8"/>
<path d="M325 715C325.99 715.33 326.98 715.66 328 716C326.71 717.376 325.373 718.708 324 720C323.34 720 322.68 720 322 720C322.375 718.062 322.375 718.062 323 716C323.66 715.67 324.32 715.34 325 715Z" fill="#7D1BD9"/>
<path d="M333 690C333.66 690.66 334.32 691.32 335 692C332.25 695.875 332.25 695.875 330 697C330.375 694.062 330.375 694.062 331 691C331.66 690.67 332.32 690.34 333 690Z" fill="#7509D6"/>
<path d="M330 680C330.99 680.33 331.98 680.66 333 681C332.67 683.31 332.34 685.62 332 688C330.438 686.812 330.438 686.812 329 685C329.312 682.312 329.312 682.312 330 680Z" fill="#EBDCFB"/>
<path d="M652 601C653.32 601 654.64 601 656 601C656 602.65 656 604.3 656 606C654.35 605.67 652.7 605.34 651 605C651.33 603.68 651.66 602.36 652 601Z" fill="#730AD3"/>
<path d="M435 490C435.99 490.66 436.98 491.32 438 492C438 492.66 438 493.32 438 494C437.34 494 436.68 494 436 494C435.34 495.32 434.68 496.64 434 498C433.67 495.69 433.34 493.38 433 491C433.66 490.67 434.32 490.34 435 490Z" fill="#850CE7"/>
</g>
<defs>
<clipPath id="clip0_15_2">
<rect width="1024" height="1024" rx="250" fill="white"/>
</clipPath>
</defs>
</svg>
